<svg width="16" height="16" viewBox="0 0 16 16" fill="none" xmlns="http://www.w3.org/2000/svg">
<g id="vuesax/outline/add-square">
<g id="add-square">
<path id="Vector" d="M10.6667 8.5H5.33333C5.06 8.5 4.83333 8.27333 4.83333 8C4.83333 7.72667 5.06 7.5 5.33333 7.5H10.6667C10.94 7.5 11.1667 7.72667 11.1667 8C11.1667 8.27333 10.94 8.5 10.6667 8.5Z" fill="#035EAE"/>
<path id="Vector_2" d="M8 11.1666C7.72667 11.1666 7.5 10.9399 7.5 10.6666V5.33325C7.5 5.05992 7.72667 4.83325 8 4.83325C8.27333 4.83325 8.5 5.05992 8.5 5.33325V10.6666C8.5 10.9399 8.27333 11.1666 8 11.1666Z" fill="#035EAE"/>
<path id="Vector_3" d="M10 15.1666H6C2.38 15.1666 0.833334 13.6199 0.833334 9.99992V5.99992C0.833334 2.37992 2.38 0.833252 6 0.833252H10C13.62 0.833252 15.1667 2.37992 15.1667 5.99992V9.99992C15.1667 13.6199 13.62 15.1666 10 15.1666ZM6 1.83325C2.92667 1.83325 1.83333 2.92659 1.83333 5.99992V9.99992C1.83333 13.0733 2.92667 14.1666 6 14.1666H10C13.0733 14.1666 14.1667 13.0733 14.1667 9.99992V5.99992C14.1667 2.92659 13.0733 1.83325 10 1.83325H6Z" fill="#035EAE"/>
</g>
</g>
</svg>
