<svg width="16" height="16" viewBox="0 0 16 16" fill="none" xmlns="http://www.w3.org/2000/svg">
<g id="vuesax/outline/chart-square">
<g id="chart-square">
<path id="Vector" d="M6.73986 12.1001H4.21321C3.93988 12.1001 3.71321 11.8734 3.71321 11.6001V8.18677C3.71321 7.49343 4.27987 6.92676 4.9732 6.92676H6.73986C7.0132 6.92676 7.23986 7.15342 7.23986 7.42676V11.5934C7.23986 11.8734 7.0132 12.1001 6.73986 12.1001ZM4.71321 11.1001H6.23986V7.93343H4.9732C4.8332 7.93343 4.71321 8.04673 4.71321 8.1934V11.1001Z" fill="#FFC000"/>
<path id="Vector_2" d="M9.26007 12.0999H6.7334C6.46007 12.0999 6.2334 11.8733 6.2334 11.5999V5.15991C6.2334 4.46658 6.80005 3.8999 7.49339 3.8999H8.50673C9.20007 3.8999 9.76672 4.46658 9.76672 5.15991V11.5999C9.76006 11.8733 9.54007 12.0999 9.26007 12.0999ZM7.24005 11.0999H8.76672V5.15991C8.76672 5.01991 8.6534 4.8999 8.50673 4.8999H7.49339C7.35339 4.8999 7.2334 5.01325 7.2334 5.15991V11.0999H7.24005Z" fill="#FFC000"/>
<path id="Vector_3" d="M11.7867 12.1H9.26009C8.98675 12.1 8.76009 11.8734 8.76009 11.6V8.56665C8.76009 8.29332 8.98675 8.06665 9.26009 8.06665H11.0267C11.7201 8.06665 12.2867 8.63333 12.2867 9.32666V11.6C12.2867 11.8734 12.0667 12.1 11.7867 12.1ZM9.76009 11.1H11.2867V9.32666C11.2867 9.18666 11.1734 9.06665 11.0267 9.06665H9.76009V11.1Z" fill="#FFC000"/>
<path id="Vector_4" d="M10 15.1666H6C2.38 15.1666 0.833328 13.6199 0.833328 9.99992V5.99992C0.833328 2.37992 2.38 0.833252 6 0.833252H10C13.62 0.833252 15.1667 2.37992 15.1667 5.99992V9.99992C15.1667 13.6199 13.62 15.1666 10 15.1666ZM6 1.83325C2.92666 1.83325 1.83333 2.92659 1.83333 5.99992V9.99992C1.83333 13.0733 2.92666 14.1666 6 14.1666H10C13.0733 14.1666 14.1667 13.0733 14.1667 9.99992V5.99992C14.1667 2.92659 13.0733 1.83325 10 1.83325H6Z" fill="#FFC000"/>
</g>
</g>
</svg>
