<svg width="14" height="14" viewBox="0 0 14 14" fill="none" xmlns="http://www.w3.org/2000/svg">
<g id="vuesax/outline/eye">
<g id="eye">
<path id="Vector" d="M7 9.52579C5.60583 9.52579 4.47417 8.39412 4.47417 6.99995C4.47417 5.60579 5.60583 4.47412 7 4.47412C8.39417 4.47412 9.52583 5.60579 9.52583 6.99995C9.52583 8.39412 8.39417 9.52579 7 9.52579ZM7 5.34912C6.09 5.34912 5.34917 6.08995 5.34917 6.99995C5.34917 7.90995 6.09 8.65079 7 8.65079C7.91 8.65079 8.65083 7.90995 8.65083 6.99995C8.65083 6.08995 7.91 5.34912 7 5.34912Z" fill="white"/>
<path id="Vector_2" d="M7 12.2616C4.80667 12.2616 2.73583 10.9783 1.3125 8.74995C0.694166 7.78745 0.694166 6.21828 1.3125 5.24995C2.74167 3.02161 4.8125 1.73828 7 1.73828C9.1875 1.73828 11.2583 3.02161 12.6817 5.24995C13.3 6.21245 13.3 7.78161 12.6817 8.74995C11.2583 10.9783 9.1875 12.2616 7 12.2616ZM7 2.61328C5.11583 2.61328 3.31333 3.74495 2.05333 5.72245C1.61583 6.40495 1.61583 7.59495 2.05333 8.27745C3.31333 10.2549 5.11583 11.3866 7 11.3866C8.88417 11.3866 10.6867 10.2549 11.9467 8.27745C12.3842 7.59495 12.3842 6.40495 11.9467 5.72245C10.6867 3.74495 8.88417 2.61328 7 2.61328Z" fill="white"/>
</g>
</g>
</svg>
