<svg width="213" height="176" viewBox="0 0 213 176" fill="none" xmlns="http://www.w3.org/2000/svg">
<g id="Group 4">
<g id="freepik--Shadow--inject-61">
<path id="Vector" d="M106.11 175.383C164.713 175.383 212.22 172.609 212.22 169.188C212.22 165.766 164.713 162.992 106.11 162.992C47.5071 162.992 0 165.766 0 169.188C0 172.609 47.5071 175.383 106.11 175.383Z" fill="#F5F5F5"/>
</g>
<g id="freepik--Documents--inject-61">
<path id="Vector_2" d="M73.4983 63.7234C73.1925 62.3964 72.4459 61.2124 71.3803 60.3645C70.3148 59.5166 68.9933 59.0551 67.6316 59.0552H23.85C22.2534 59.0552 20.7222 59.6894 19.5933 60.8184C18.4643 61.9473 17.8301 63.4785 17.8301 65.0751V162.391C17.8301 163.987 18.4643 165.518 19.5933 166.647C20.7222 167.776 22.2534 168.41 23.85 168.41H162.856C164.453 168.41 165.984 167.776 167.113 166.647C168.242 165.518 168.876 163.987 168.876 162.391V80.6449C168.876 79.0483 168.242 77.5171 167.113 76.3882C165.984 75.2592 164.453 74.625 162.856 74.625H87.1964C84.0166 74.6255 80.9306 73.5477 78.4426 71.5676C75.9545 69.5875 74.2115 66.8222 73.4983 63.7234Z" fill="#38A5FC"/>
<path id="Vector_3" opacity="0.6" d="M73.4983 63.7234C73.1925 62.3964 72.4459 61.2124 71.3803 60.3645C70.3148 59.5166 68.9933 59.0551 67.6316 59.0552H23.85C22.2534 59.0552 20.7222 59.6894 19.5933 60.8184C18.4643 61.9473 17.8301 63.4785 17.8301 65.0751V162.391C17.8301 163.987 18.4643 165.518 19.5933 166.647C20.7222 167.776 22.2534 168.41 23.85 168.41H162.856C164.453 168.41 165.984 167.776 167.113 166.647C168.242 165.518 168.876 163.987 168.876 162.391V80.6449C168.876 79.0483 168.242 77.5171 167.113 76.3882C165.984 75.2592 164.453 74.625 162.856 74.625H87.1964C84.0166 74.6255 80.9306 73.5477 78.4426 71.5676C75.9545 69.5875 74.2115 66.8222 73.4983 63.7234Z" fill="black"/>
<path id="Vector_4" opacity="0.22" d="M58.0435 33.4155L61.9455 46.052C62.4436 47.6602 63.5597 49.005 65.0486 49.791C66.5374 50.577 68.2774 50.74 69.8864 50.244L82.5173 46.342L58.0435 33.4155Z" fill="#38A5FC"/>
<path id="Vector_5" d="M58.0433 33.4155L12.8936 47.3654C12.0966 47.6103 11.3556 48.0099 10.7132 48.5414C10.0708 49.0728 9.5394 49.7258 9.14954 50.4628C8.75967 51.1998 8.51894 52.0065 8.44113 52.8367C8.36332 53.6668 8.44995 54.5042 8.69606 55.3008L34.4724 138.748C34.7185 139.545 35.119 140.286 35.6513 140.928C36.1835 141.569 36.837 142.1 37.5744 142.489C38.3119 142.879 39.1187 143.119 39.949 143.196C40.7793 143.274 41.6166 143.187 42.4133 142.94L100.199 125.089C100.996 124.843 101.736 124.443 102.378 123.911C103.02 123.38 103.551 122.727 103.94 121.99C104.329 121.253 104.57 120.446 104.647 119.616C104.725 118.786 104.638 117.949 104.392 117.153L82.5008 46.342L58.0433 33.4155Z" fill="#38A5FC"/>
<path id="Vector_6" opacity="0.8" d="M58.0433 33.4155L12.8936 47.3654C12.0966 47.6103 11.3556 48.0099 10.7132 48.5414C10.0708 49.0728 9.5394 49.7258 9.14954 50.4628C8.75967 51.1998 8.51894 52.0065 8.44113 52.8367C8.36332 53.6668 8.44995 54.5042 8.69606 55.3008L34.4724 138.748C34.7185 139.545 35.119 140.286 35.6513 140.928C36.1835 141.569 36.837 142.1 37.5744 142.489C38.3119 142.879 39.1187 143.119 39.949 143.196C40.7793 143.274 41.6166 143.187 42.4133 142.94L100.199 125.089C100.996 124.843 101.736 124.443 102.378 123.911C103.02 123.38 103.551 122.727 103.94 121.99C104.329 121.253 104.57 120.446 104.647 119.616C104.725 118.786 104.638 117.949 104.392 117.153L82.5008 46.342L58.0433 33.4155Z" fill="white"/>
<g id="Group" opacity="0.28">
<path id="Vector_7" d="M82.3366 121.444L44.7721 133.046C44.0696 133.262 43.3102 133.19 42.66 132.848C42.0099 132.505 41.5217 131.919 41.3024 131.218C41.0885 130.516 41.1613 129.757 41.5048 129.108C41.8483 128.459 42.4346 127.972 43.1358 127.754L80.7003 116.146C81.4035 115.931 82.1635 116.003 82.8138 116.346C83.4642 116.69 83.9518 117.277 84.17 117.98C84.3839 118.682 84.3111 119.441 83.9676 120.09C83.6241 120.739 83.0378 121.226 82.3366 121.444Z" fill="#38A5FC"/>
</g>
<g id="Group_2" opacity="0.28">
<path id="Vector_8" d="M41.9099 53.3526L22.044 59.4875C21.3415 59.7018 20.5828 59.6299 19.933 59.2876C19.2832 58.9453 18.7949 58.3602 18.5743 57.6596C18.3603 56.9564 18.4329 56.1971 18.7763 55.5471C19.1197 54.8972 19.7061 54.4094 20.4077 54.1899L40.2735 48.055C40.976 47.8378 41.7361 47.9082 42.3866 48.251C43.0372 48.5937 43.5251 49.1807 43.7432 49.8829C43.9573 50.5862 43.8847 51.3455 43.5412 51.9954C43.1978 52.6453 42.6114 53.1332 41.9099 53.3526Z" fill="#38A5FC"/>
</g>
<g id="Group_3" opacity="0.28">
<path id="Vector_9" d="M58.12 59.8597L25.2839 70.0006C24.5828 70.2111 23.827 70.1367 23.1805 69.7935C22.534 69.4502 22.0489 68.8659 21.8306 68.1672C21.615 67.4654 21.6863 66.7068 22.0289 66.0575C22.3715 65.4082 22.9575 64.9211 23.6585 64.703L56.4946 54.5621C57.1971 54.3463 57.9565 54.4175 58.6067 54.76C59.2569 55.1026 59.745 55.6886 59.9643 56.39C60.1764 57.0947 60.1016 57.8546 59.7562 58.5044C59.4108 59.1542 58.8228 59.6413 58.12 59.8597Z" fill="#38A5FC"/>
</g>
<g id="Group_4" opacity="0.28">
<path id="Vector_10" d="M76.4535 65.71L28.5346 80.4862C27.8328 80.7018 27.0742 80.6305 26.4249 80.2879C25.7756 79.9453 25.2885 79.3593 25.0704 78.6583C24.8561 77.9558 24.928 77.1971 25.2703 76.5473C25.6126 75.8975 26.1977 75.4092 26.8983 75.1887L74.8172 60.4124C75.5189 60.1983 76.2769 60.2703 76.9258 60.6127C77.5747 60.9551 78.062 61.5401 78.2814 62.2403C78.4971 62.9428 78.426 63.7021 78.0835 64.3523C77.7409 65.0025 77.1549 65.4906 76.4535 65.71Z" fill="#38A5FC"/>
</g>
<g id="Group_5" opacity="0.28">
<path id="Vector_11" d="M79.6988 76.2175L51.8428 84.826C51.1403 85.0399 50.3817 84.9671 49.7327 84.6236C49.0836 84.2801 48.5968 83.6938 48.3786 82.9927C48.1645 82.2909 48.2365 81.5329 48.5789 80.884C48.9213 80.2351 49.5063 79.7478 50.2065 79.5285L78.0624 70.9199C78.7657 70.7074 79.5243 70.7806 80.1739 71.1239C80.8234 71.4671 81.3115 72.0525 81.5321 72.7533C81.746 73.4558 81.6733 74.2143 81.3298 74.8634C80.9863 75.5124 80.3999 75.9992 79.6988 76.2175Z" fill="#38A5FC"/>
</g>
<g id="Group_6" opacity="0.28">
<path id="Vector_12" d="M39.0695 88.7718L31.7853 91.0211C31.0828 91.2368 30.3235 91.1657 29.6733 90.8231C29.0231 90.4806 28.535 89.8946 28.3157 89.1932C28.1001 88.49 28.172 87.73 28.5157 87.0796C28.8593 86.4293 29.4466 85.9417 30.149 85.7235L37.4332 83.4742C38.1357 83.2599 38.8944 83.3318 39.5442 83.6741C40.194 84.0164 40.6823 84.6015 40.9029 85.3021C41.1154 86.0053 41.0421 86.764 40.6989 87.4135C40.3557 88.0631 39.7702 88.5511 39.0695 88.7718Z" fill="#38A5FC"/>
</g>
<g id="Group_7" opacity="0.28">
<path id="Vector_13" d="M82.9497 86.7306L35.0308 101.534C34.3283 101.748 33.5697 101.675 32.9206 101.332C32.2716 100.988 31.7848 100.402 31.5666 99.7009C31.351 98.9991 31.4223 98.2405 31.7649 97.5912C32.1075 96.9418 32.6935 96.4548 33.3944 96.2366L81.3133 81.433C82.0151 81.2189 82.7731 81.2909 83.422 81.6333C84.0709 81.9757 84.5582 82.5608 84.7775 83.2609C84.9933 83.9634 84.9222 84.7228 84.5796 85.373C84.2371 86.0231 83.6511 86.5113 82.9497 86.7306Z" fill="#38A5FC"/>
</g>
<g id="Group_8" opacity="0.28">
<path id="Vector_14" d="M67.7027 102.952L38.2761 112.042C37.5743 112.256 36.8163 112.184 36.1674 111.841C35.5185 111.499 35.0312 110.914 34.8119 110.214C34.5976 109.511 34.6694 108.753 35.0118 108.103C35.3541 107.453 35.9392 106.965 36.6397 106.744L66.0664 97.654C66.7696 97.44 67.5289 97.5126 68.1789 97.856C68.8288 98.1994 69.3166 98.7858 69.5361 99.4874C69.7515 100.19 69.6794 100.949 69.3357 101.599C68.992 102.248 68.4047 102.735 67.7027 102.952Z" fill="#38A5FC"/>
</g>
<g id="Group_9" opacity="0.28">
<path id="Vector_15" d="M86.195 97.2437L78.3417 99.668C77.6384 99.8821 76.8791 99.8095 76.2292 99.4661C75.5793 99.1227 75.0914 98.5363 74.872 97.8347C74.6581 97.1322 74.7309 96.3736 75.0744 95.7246C75.4179 95.0755 76.0042 94.5887 76.7053 94.3705L84.5587 91.9461C85.2604 91.7305 86.0191 91.8018 86.6684 92.1444C87.3177 92.487 87.8047 93.073 88.0229 93.774C88.2386 94.4765 88.1675 95.2358 87.8249 95.886C87.4824 96.5362 86.8964 97.0243 86.195 97.2437Z" fill="#38A5FC"/>
</g>
<g id="Group_10" opacity="0.28">
<path id="Vector_16" d="M89.4402 107.762L41.5322 122.538C40.829 122.754 40.069 122.682 39.4187 122.338C38.7684 121.995 38.2807 121.407 38.0626 120.705C37.8472 120.003 37.9192 119.243 38.2629 118.594C38.6066 117.944 39.1939 117.458 39.8959 117.241L87.8093 102.437C88.5125 102.225 89.2712 102.298 89.9207 102.641C90.5703 102.984 91.0583 103.57 91.279 104.271C91.3889 104.621 91.4285 104.989 91.3955 105.354C91.3624 105.719 91.2574 106.075 91.0865 106.399C90.9156 106.724 90.6821 107.011 90.3995 107.245C90.117 107.479 89.7909 107.655 89.4402 107.762Z" fill="#38A5FC"/>
</g>
<path id="Vector_17" d="M90.4691 2.03522L104.797 33.9629C105.169 34.7963 105.195 35.7431 104.871 36.5963C104.547 37.4496 103.899 38.1398 103.067 38.5162L42.2875 65.7975C41.4542 66.171 40.5069 66.1986 39.6532 65.8744C38.7996 65.5502 38.1095 64.9006 37.7342 64.0682L23.4012 32.1405C23.0261 31.3066 22.9975 30.3579 23.3218 29.503C23.6461 28.648 24.2968 27.957 25.1306 27.5817L85.9103 0.300374C86.7452 -0.0714445 87.6934 -0.0976867 88.5476 0.227381C89.4018 0.552449 90.0926 1.2024 90.4691 2.03522Z" fill="#38A5FC"/>
<path id="Vector_18" opacity="0.3" d="M90.4691 2.03522L104.797 33.9629C105.169 34.7963 105.195 35.7431 104.871 36.5963C104.547 37.4496 103.899 38.1398 103.067 38.5162L42.2875 65.7975C41.4542 66.171 40.5069 66.1986 39.6532 65.8744C38.7996 65.5502 38.1095 64.9006 37.7342 64.0682L23.4012 32.1405C23.0261 31.3066 22.9975 30.3579 23.3218 29.503C23.6461 28.648 24.2968 27.957 25.1306 27.5817L85.9103 0.300374C86.7452 -0.0714445 87.6934 -0.0976867 88.5476 0.227381C89.4018 0.552449 90.0926 1.2024 90.4691 2.03522Z" fill="black"/>
<path id="Vector_19" d="M80.89 0.457538L78.9476 1.32886L79.1716 1.82819L81.114 0.95687L80.89 0.457538Z" fill="#38A5FC"/>
<path id="Vector_20" d="M76.2272 2.54655L70.1703 5.26355L70.3943 5.76288L76.4512 3.04589L76.2272 2.54655Z" fill="#38A5FC"/>
<path id="Vector_21" d="M23.3474 35.3582L22.8481 35.5824L24.507 39.2769L25.0062 39.0527L23.3474 35.3582Z" fill="#38A5FC"/>
<path id="Vector_22" opacity="0.6" d="M88.4332 0.18543L72.7594 30.8872C71.3051 33.7329 68.9232 35.9971 66.0076 37.3056C63.092 38.6142 59.8172 38.8887 56.7245 38.0838L23.3684 29.3877C23.7106 28.5874 24.3389 27.9434 25.1306 27.5817L85.9103 0.300356C86.7065 -0.0556676 87.608 -0.0967336 88.4332 0.18543Z" fill="#38A5FC"/>
<path id="Vector_23" d="M109.979 39.4792L62.8155 42.3907C61.9823 42.4402 61.167 42.6536 60.4164 43.0186C59.6657 43.3836 58.9944 43.893 58.4408 44.5177C57.8872 45.1424 57.4623 45.8702 57.1903 46.6593C56.9184 47.4485 56.8047 48.2835 56.8558 49.1167L62.2354 136.286C62.2856 137.119 62.4998 137.935 62.8658 138.686C63.2318 139.437 63.7423 140.108 64.3681 140.661C64.994 141.214 65.7228 141.638 66.5129 141.909C67.303 142.18 68.1387 142.293 68.9723 142.24L129.336 138.513C130.168 138.463 130.983 138.249 131.732 137.884C132.482 137.518 133.152 137.008 133.704 136.384C134.256 135.759 134.679 135.031 134.95 134.242C135.22 133.454 135.332 132.619 135.279 131.787L130.737 57.8128L109.979 39.4792Z" fill="#38A5FC"/>
<path id="Vector_24" opacity="0.8" d="M109.979 39.4792L62.8155 42.3907C61.9823 42.4402 61.167 42.6536 60.4164 43.0186C59.6657 43.3836 58.9944 43.893 58.4408 44.5177C57.8872 45.1424 57.4623 45.8702 57.1903 46.6593C56.9184 47.4485 56.8047 48.2835 56.8558 49.1167L62.2354 136.286C62.2856 137.119 62.4998 137.935 62.8658 138.686C63.2318 139.437 63.7423 140.108 64.3681 140.661C64.994 141.214 65.7228 141.638 66.5129 141.909C67.303 142.18 68.1387 142.293 68.9723 142.24L129.336 138.513C130.168 138.463 130.983 138.249 131.732 137.884C132.482 137.518 133.152 137.008 133.704 136.384C134.256 135.759 134.679 135.031 134.95 134.242C135.22 133.454 135.332 132.619 135.279 131.787L130.737 57.8128L109.979 39.4792Z" fill="white"/>
<g id="Group_11" opacity="0.22">
<path id="Vector_25" d="M112.83 130.747L73.5858 133.172C72.8526 133.214 72.1327 132.964 71.5831 132.477C71.0335 131.99 70.6989 131.305 70.6524 130.572C70.6104 129.839 70.8593 129.12 71.345 128.569C71.8308 128.019 72.5141 127.683 73.2465 127.633L112.491 125.214C113.224 125.171 113.945 125.419 114.496 125.905C115.046 126.391 115.382 127.076 115.43 127.809C115.473 128.543 115.224 129.264 114.737 129.815C114.25 130.366 113.564 130.701 112.83 130.747Z" fill="#38A5FC"/>
</g>
<g id="Group_12" opacity="0.22">
<path id="Vector_26" d="M89.6044 55.0491L68.8465 56.3187C68.1137 56.3608 67.3939 56.1119 66.8436 55.6261C66.2932 55.1404 65.9569 54.457 65.9076 53.7247C65.8656 52.991 66.1153 52.2704 66.6022 51.7199C67.0891 51.1695 67.7738 50.8337 68.5072 50.7858L89.2651 49.5052C89.9977 49.4618 90.7177 49.7104 91.2674 50.1965C91.8172 50.6827 92.152 51.3669 92.1984 52.0993C92.2449 52.8343 91.9979 53.5577 91.5115 54.1107C91.0252 54.6638 90.3393 55.0012 89.6044 55.0491Z" fill="#38A5FC"/>
</g>
<g id="Group_13" opacity="0.22">
<path id="Vector_27" d="M103.822 65.1956L69.5251 67.308C68.7916 67.353 68.0702 67.1051 67.5192 66.6188C66.9683 66.1324 66.6327 65.4474 66.5863 64.714C66.5428 63.9799 66.792 63.2585 67.2792 62.7077C67.7664 62.157 68.4519 61.8216 69.1858 61.7751L103.478 59.6627C104.211 59.6177 104.933 59.8656 105.484 60.3519C106.035 60.8383 106.37 61.5233 106.417 62.2567C106.46 62.9899 106.212 63.7105 105.726 64.2611C105.24 64.8118 104.555 65.1477 103.822 65.1956Z" fill="#38A5FC"/>
</g>
<g id="Group_14" opacity="0.22">
<path id="Vector_28" d="M120.257 75.2051L70.2037 78.2917C69.4681 78.3367 68.7447 78.0884 68.1919 77.6012C67.639 77.114 67.3017 76.4276 67.2539 75.6922C67.2104 74.9596 67.459 74.2396 67.9452 73.6898C68.4314 73.1401 69.1155 72.8053 69.848 72.7588L119.907 69.6668C120.64 69.6248 121.36 69.8746 121.909 70.3617C122.459 70.8487 122.794 71.5334 122.84 72.2663C122.884 72.9977 122.637 73.7167 122.153 74.2671C121.669 74.8174 120.988 75.1545 120.257 75.2051Z" fill="#38A5FC"/>
</g>
<g id="Group_15" opacity="0.22">
<path id="Vector_29" d="M120.936 86.1832L91.8372 87.9783C91.1041 88.0218 90.3835 87.7734 89.8328 87.2873C89.2822 86.8013 88.9463 86.1171 88.8984 85.3842C88.8534 84.6507 89.1013 83.9293 89.5876 83.3783C90.074 82.8274 90.759 82.4918 91.4924 82.4454L120.591 80.6503C121.324 80.6054 122.046 80.8533 122.597 81.3396C123.148 81.8259 123.483 82.511 123.53 83.2444C123.573 83.9776 123.325 84.6982 122.839 85.2488C122.353 85.7994 121.668 86.1354 120.936 86.1832Z" fill="#38A5FC"/>
</g>
<g id="Group_16" opacity="0.22">
<path id="Vector_30" d="M78.4894 88.7993L70.8768 89.2699C70.1442 89.3134 69.4243 89.0648 68.8745 88.5787C68.3247 88.0925 67.99 87.4083 67.9435 86.6759C67.9 85.9427 68.1484 85.2221 68.6344 84.6715C69.1205 84.1209 69.8046 83.7849 70.5375 83.7371L78.1501 83.2664C78.8838 83.2244 79.6043 83.4741 80.1548 83.961C80.7052 84.4479 81.041 85.1326 81.0889 85.8659C81.1308 86.5991 80.881 87.319 80.394 87.8686C79.9069 88.4182 79.2222 88.7528 78.4894 88.7993Z" fill="#38A5FC"/>
</g>
<g id="Group_17" opacity="0.22">
<path id="Vector_31" d="M121.614 97.1615L71.5554 100.248C70.8223 100.292 70.1017 100.043 69.5511 99.5572C69.0004 99.0712 68.6645 98.387 68.6166 97.6541C68.5746 96.9204 68.8243 96.1998 69.3112 95.6493C69.7981 95.0989 70.4828 94.7631 71.2161 94.7152L121.269 91.6286C122.003 91.5852 122.725 91.8343 123.276 92.3215C123.826 92.8087 124.162 93.4943 124.208 94.2282C124.252 94.9608 124.003 95.6808 123.517 96.2305C123.031 96.7803 122.347 97.1151 121.614 97.1615Z" fill="#38A5FC"/>
</g>
<g id="Group_18" opacity="0.22">
<path id="Vector_32" d="M102.974 109.333L72.2342 111.232C71.5005 111.274 70.7799 111.024 70.2294 110.537C69.679 110.05 69.3432 109.366 69.2953 108.632C69.2534 107.899 69.5032 107.179 69.9902 106.63C70.4773 106.08 71.162 105.745 71.8948 105.699L102.635 103.8C103.368 103.758 104.088 104.008 104.638 104.495C105.187 104.982 105.522 105.666 105.568 106.399C105.613 107.132 105.365 107.853 104.879 108.403C104.392 108.953 103.707 109.288 102.974 109.333Z" fill="#38A5FC"/>
</g>
<g id="Group_19" opacity="0.22">
<path id="Vector_33" d="M122.287 108.145L114.078 108.649C113.346 108.692 112.626 108.444 112.076 107.957C111.526 107.471 111.191 106.787 111.145 106.055C111.1 105.321 111.348 104.6 111.834 104.049C112.32 103.498 113.005 103.162 113.739 103.116L121.948 102.612C122.681 102.567 123.403 102.815 123.954 103.302C124.505 103.788 124.84 104.473 124.887 105.206C124.929 105.94 124.679 106.661 124.192 107.211C123.705 107.762 123.021 108.097 122.287 108.145Z" fill="#38A5FC"/>
</g>
<g id="Group_20" opacity="0.22">
<path id="Vector_34" d="M122.966 119.123L72.9127 122.21C72.1795 122.253 71.459 122.005 70.9083 121.519C70.3577 121.033 70.0217 120.349 69.9739 119.616C69.9304 118.883 70.1788 118.162 70.6648 117.611C71.1509 117.061 71.835 116.725 72.5679 116.677L122.627 113.59C123.359 113.547 124.079 113.796 124.629 114.282C125.179 114.768 125.514 115.452 125.56 116.185C125.605 116.918 125.357 117.639 124.871 118.19C124.384 118.741 123.699 119.077 122.966 119.123Z" fill="#38A5FC"/>
</g>
<path id="Vector_35" opacity="0.22" d="M109.979 39.4792L110.795 52.6794C110.845 53.5117 111.06 54.3258 111.425 55.0752C111.791 55.8246 112.301 56.4946 112.925 57.0471C113.55 57.5995 114.277 58.0235 115.066 58.2948C115.854 58.566 116.688 58.6793 117.52 58.6282L130.737 57.8128L109.979 39.4792Z" fill="#38A5FC"/>
<path id="Vector_36" opacity="0.5" d="M94.5352 72.4085C94.527 71.776 94.392 71.1515 94.1383 70.572C93.8846 69.9924 93.5174 69.4696 93.0582 69.0345C92.599 68.5993 92.0573 68.2605 91.465 68.0383C90.8727 67.816 90.2419 67.7147 89.6098 67.7403H45.7736C42.4516 67.7403 39.2063 70.4384 38.5824 73.7603L21.2833 162.391C20.6375 165.712 22.8047 168.41 26.1266 168.41H165.133C168.455 168.41 171.673 165.718 172.324 162.391L186.591 89.3301C187.237 86.0027 185.07 83.3102 181.748 83.3102H106.11C99.5427 83.3102 94.7596 78.7897 94.5352 72.4085Z" fill="#38A5FC"/>
</g>
</g>
</svg>
