<svg width="16" height="16" viewBox="0 0 16 16" fill="none" xmlns="http://www.w3.org/2000/svg">
<g id="vuesax/outline/money-2">
<g id="money-2">
<path id="Vector" d="M11.3333 14.1666H4.66667C2.23334 14.1666 0.833336 12.7666 0.833336 10.3333V5.66659C0.833336 3.23325 2.23334 1.83325 4.66667 1.83325H11.3333C13.7667 1.83325 15.1667 3.23325 15.1667 5.66659V10.3333C15.1667 12.7666 13.7667 14.1666 11.3333 14.1666ZM4.66667 2.83325C2.76 2.83325 1.83334 3.75992 1.83334 5.66659V10.3333C1.83334 12.2399 2.76 13.1666 4.66667 13.1666H11.3333C13.24 13.1666 14.1667 12.2399 14.1667 10.3333V5.66659C14.1667 3.75992 13.24 2.83325 11.3333 2.83325H4.66667Z" fill="#FFC000"/>
<path id="Vector_2" d="M8 10.5C6.62 10.5 5.5 9.38 5.5 8C5.5 6.62 6.62 5.5 8 5.5C9.38 5.5 10.5 6.62 10.5 8C10.5 9.38 9.38 10.5 8 10.5ZM8 6.5C7.17333 6.5 6.5 7.17333 6.5 8C6.5 8.82667 7.17333 9.5 8 9.5C8.82667 9.5 9.5 8.82667 9.5 8C9.5 7.17333 8.82667 6.5 8 6.5Z" fill="#FFC000"/>
<path id="Vector_3" d="M2 6.50008H1.33334C1.06 6.50008 0.833336 6.27341 0.833336 6.00008C0.833336 5.72675 1.06 5.50008 1.33334 5.50008H2C3.72 5.50008 4.16667 5.05341 4.16667 3.33341V2.66675C4.16667 2.39341 4.39334 2.16675 4.66667 2.16675C4.94 2.16675 5.16667 2.39341 5.16667 2.66675V3.33341C5.16667 5.61341 4.28 6.50008 2 6.50008Z" fill="#FFC000"/>
<path id="Vector_4" d="M14.6667 6.50008H14C11.72 6.50008 10.8333 5.61341 10.8333 3.33341V2.66675C10.8333 2.39341 11.06 2.16675 11.3333 2.16675C11.6067 2.16675 11.8333 2.39341 11.8333 2.66675V3.33341C11.8333 5.05341 12.28 5.50008 14 5.50008H14.6667C14.94 5.50008 15.1667 5.72675 15.1667 6.00008C15.1667 6.27341 14.94 6.50008 14.6667 6.50008Z" fill="#FFC000"/>
<path id="Vector_5" d="M4.66667 13.8333C4.39334 13.8333 4.16667 13.6067 4.16667 13.3333V12.6667C4.16667 10.9467 3.72 10.5 2 10.5H1.33334C1.06 10.5 0.833336 10.2733 0.833336 10C0.833336 9.72667 1.06 9.5 1.33334 9.5H2C4.28 9.5 5.16667 10.3867 5.16667 12.6667V13.3333C5.16667 13.6067 4.94 13.8333 4.66667 13.8333Z" fill="#FFC000"/>
<path id="Vector_6" d="M11.3333 13.8333C11.06 13.8333 10.8333 13.6067 10.8333 13.3333V12.6667C10.8333 10.3867 11.72 9.5 14 9.5H14.6667C14.94 9.5 15.1667 9.72667 15.1667 10C15.1667 10.2733 14.94 10.5 14.6667 10.5H14C12.28 10.5 11.8333 10.9467 11.8333 12.6667V13.3333C11.8333 13.6067 11.6067 13.8333 11.3333 13.8333Z" fill="#FFC000"/>
</g>
</g>
</svg>
