<svg width="53" height="53" viewBox="0 0 53 53" fill="none" xmlns="http://www.w3.org/2000/svg">
<path fill-rule="evenodd" clip-rule="evenodd" d="M30.9795 9.05355L26.5054 13.969L22.0313 9.05355C20.2978 7.14903 17.8644 6.04993 15.24 6.04993C10.1705 6.04993 6.06081 10.1596 6.06081 15.2291V36.9447C6.06081 42.0143 10.1705 46.124 15.24 46.124C17.8644 46.124 20.2978 45.0249 22.0313 43.1203L26.5054 38.2049L30.9795 43.1203C32.713 45.0249 35.1464 46.124 37.7708 46.124C42.8404 46.124 46.9501 42.0143 46.9501 36.9447V15.2291C46.9501 10.1596 42.8404 6.04993 37.7708 6.04993C35.1464 6.04993 32.713 7.14903 30.9795 9.05355Z" stroke="#0476D9" stroke-width="12.0999"/>
</svg>
