<svg width="200" height="208" viewBox="0 0 200 208" fill="none" xmlns="http://www.w3.org/2000/svg">
<g id="OTP 1" clip-path="url(#clip0_52_637)">
<g id="Page-1">
<g id="OTP">
<g id="undraw_confirmed_81ex-(1)">
<path id="Oval" fill-rule="evenodd" clip-rule="evenodd" d="M100 189.771C145.155 189.771 181.76 153.336 181.76 108.39C181.76 63.4447 145.155 27.0092 100 27.0092C54.8451 27.0092 18.2399 63.4447 18.2399 108.39C18.2399 153.336 54.8451 189.771 100 189.771Z" stroke="#3AD29F" stroke-width="0.613889" stroke-dasharray="3.68 3.68"/>
<path id="Oval_2" fill-rule="evenodd" clip-rule="evenodd" d="M100 207.034C154.733 207.034 199.103 162.87 199.103 108.39C199.103 53.9109 154.733 9.74658 100 9.74658C45.2668 9.74658 0.896858 53.9109 0.896858 108.39C0.896858 162.87 45.2668 207.034 100 207.034Z" stroke="#3AD29F" stroke-width="0.613889" stroke-dasharray="3.68 3.68"/>
<path id="Path" d="M166.328 139.817C166.33 128.332 157.552 118.732 146.065 117.657C134.577 116.581 124.155 124.384 122.006 135.668L53.2976 133.813L54.0519 145.563C54.0519 145.563 44.2545 168.064 95.7468 174.06V196.803H155.275V158.989C162.115 155.002 166.321 147.707 166.328 139.817Z" fill="url(#paint0_linear_52_637)"/>
<path id="Path_2" d="M56.4111 146.056C56.4111 146.056 47.0294 167.604 96.3414 173.353V195.142H153.351V137.438L55.6789 134.802L56.4111 146.056Z" fill="#BE7C5E"/>
<path id="Path_3" d="M84.9033 56.1338C81.8088 60.9942 75.3516 62.4548 70.4507 59.4027L39.8416 39.326C34.9586 36.2458 33.4912 29.8186 36.5575 24.9404C39.6515 20.0867 46.1004 18.6269 50.999 21.6715L81.6081 41.7482C86.4951 44.8248 87.9675 51.2528 84.9033 56.1338Z" fill="url(#paint1_linear_52_637)"/>
<path id="Path_4" d="M83.2075 55.0377C80.3311 59.5556 74.3291 60.9132 69.7735 58.0765L41.3117 39.3999C36.7727 36.5368 35.4088 30.5627 38.2587 26.0282C41.1352 21.5103 47.1371 20.1527 51.6927 22.9894L80.1491 41.655C84.6967 44.5168 86.0639 50.4996 83.2075 55.0377Z" fill="#BE7C5E"/>
<path id="Oval_3" d="M142.529 161.861C154.353 161.861 163.938 152.32 163.938 140.551C163.938 128.782 154.353 119.241 142.529 119.241C130.705 119.241 121.12 128.782 121.12 140.551C121.12 152.32 130.705 161.861 142.529 161.861Z" fill="#BE7C5E"/>
<path id="Rectangle" d="M138.675 0H56.6616C54.7992 0 53.2894 1.50281 53.2894 3.35663V156.107C53.2894 157.96 54.7992 159.463 56.6616 159.463H138.675C140.537 159.463 142.047 157.96 142.047 156.107V3.35663C142.047 1.50281 140.537 0 138.675 0Z" fill="url(#paint2_linear_52_637)"/>
<path id="Rectangle_2" d="M137.089 2.15649H58.2418C56.168 2.15649 54.4869 3.82983 54.4869 5.894V153.575C54.4869 155.639 56.168 157.312 58.2418 157.312H137.089C139.163 157.312 140.844 155.639 140.844 153.575V5.894C140.844 3.82983 139.163 2.15649 137.089 2.15649Z" fill="white"/>
<path id="Path_5" d="M119.361 6.04736C118.845 9.4473 115.914 11.9641 112.459 11.9742H82.6349C79.1814 11.9628 76.2523 9.44628 75.7362 6.04736H59.9348C59.0648 6.04736 58.2301 6.39014 57.6147 7.00224C56.9992 7.61434 56.6534 8.44483 56.6534 9.31083V150.152C56.6534 151.018 56.9978 151.849 57.6127 152.462C58.2277 153.074 59.062 153.418 59.932 153.418H135.399C136.269 153.418 137.104 153.076 137.719 152.464C138.335 151.851 138.681 151.021 138.681 150.155V9.31357C138.681 8.44757 138.336 7.61679 137.721 7.00418C137.106 6.39157 136.272 6.04736 135.402 6.04736H119.361Z" fill="#2F56F8"/>
<path id="Rectangle_3" d="M106.86 7.90247H88.716C88.4119 7.90247 88.1654 8.14782 88.1654 8.45049V8.55187C88.1654 8.85453 88.4119 9.09989 88.716 9.09989H106.86C107.164 9.09989 107.411 8.85453 107.411 8.55187V8.45049C107.411 8.14782 107.164 7.90247 106.86 7.90247Z" fill="#DBDBDB"/>
<path id="Oval_4" d="M111.499 9.27467C111.994 9.27467 112.396 8.87499 112.396 8.38196C112.396 7.88893 111.994 7.48926 111.499 7.48926C111.003 7.48926 110.602 7.88893 110.602 8.38196C110.602 8.87499 111.003 9.27467 111.499 9.27467Z" fill="#DBDBDB"/>
<path id="Path_6" d="M156.368 144.31C150.154 145.741 145.89 141.707 144.453 135.526L130.177 82.7594C128.756 76.5537 132.636 70.3709 138.862 68.9191C145.097 67.5052 151.308 71.3672 152.767 77.5642L164.417 131.692C165.854 137.877 162.578 142.88 156.368 144.31Z" fill="url(#paint3_linear_52_637)"/>
<path id="Rectangle_4" d="M151.165 78.8558C149.954 73.6376 144.722 70.3848 139.48 71.5905C134.237 72.7962 130.969 78.0037 132.18 83.2219L145.308 139.776C146.519 144.994 151.751 148.247 156.994 147.041C162.236 145.835 165.504 140.628 164.293 135.409L151.165 78.8558Z" fill="#BE7C5E"/>
<path id="Rectangle_5" d="M163.847 188.012H82.3624V206.919H163.847V188.012Z" fill="url(#paint4_linear_52_637)"/>
<path id="Rectangle_6" d="M161.645 190.204H84.5647V205.001H161.645V190.204Z" fill="#4D8AF0"/>
<path id="Path_7" d="M73.0219 112.739C69.965 117.542 63.5851 118.985 58.7428 115.969L38.2147 102.748C33.3897 99.7057 31.9395 93.3553 34.9691 88.5355C38.026 83.7328 44.4059 82.2894 49.2482 85.3049L69.7763 98.5259C74.6013 101.569 76.0515 107.919 73.0219 112.739Z" fill="url(#paint5_linear_52_637)"/>
<path id="Path_8" d="M67.8686 140.724C64.7844 145.57 58.3464 147.027 53.4601 143.984L40.7446 134.756C35.8753 131.686 34.4115 125.278 37.4687 120.414C40.5528 115.567 46.9909 114.11 51.8772 117.153L64.5926 126.385C69.4603 129.454 70.9238 135.861 67.8686 140.724Z" fill="url(#paint6_linear_52_637)"/>
<g id="Group" opacity="0.5">
<path id="Oval_5" d="M97.6656 104.379C111.34 104.379 122.425 93.3451 122.425 79.7343C122.425 66.1236 111.34 55.0898 97.6656 55.0898C83.9914 55.0898 72.9063 66.1236 72.9063 79.7343C72.9063 93.3451 83.9914 104.379 97.6656 104.379Z" fill="url(#paint7_linear_52_637)"/>
</g>
<path id="Oval_6" d="M97.6656 102.929C110.535 102.929 120.969 92.5445 120.969 79.7343C120.969 66.9241 110.535 56.5393 97.6656 56.5393C84.7957 56.5393 74.3626 66.9241 74.3626 79.7343C74.3626 92.5445 84.7957 102.929 97.6656 102.929Z" fill="#69F0AE"/>
<path id="Path_9" d="M87.5515 76.6379L96.2891 84.6116L108.669 66.4913L113.04 70.1165L96.2891 91.862L83.9095 78.0902L87.5515 76.6379Z" fill="white"/>
<path id="Path_10" d="M66.8417 140.036C63.9653 144.554 57.9633 145.911 53.4078 143.075L41.5484 134.482C37.0095 131.619 35.6455 125.644 38.4955 121.11C41.3719 116.592 47.3739 115.234 51.9295 118.071L63.7861 126.681C68.3159 129.542 69.68 135.504 66.8417 140.036Z" fill="#BE7C5E"/>
<path id="Path_11" d="M71.8932 112.013C69.0168 116.531 63.0148 117.888 58.4593 115.052L39.1452 102.611C34.6062 99.7484 33.2423 93.7742 36.0922 89.2398C38.9687 84.7219 44.9706 83.3642 49.5262 86.201L68.8403 98.6411C73.3792 101.504 74.7432 107.478 71.8932 112.013Z" fill="#BE7C5E"/>
<path id="Path_12" d="M78.3294 84.8857C75.2575 89.7095 68.8488 91.1588 63.9843 88.13L37.9697 71.2701C33.1235 68.2124 31.6674 61.8334 34.7103 56.9915C37.7823 52.1677 44.191 50.7183 49.0555 53.7472L75.07 70.607C79.9162 73.6648 81.3724 80.0438 78.3294 84.8857Z" fill="url(#paint8_linear_52_637)"/>
<path id="Path_13" d="M76.9475 84.0088C74.0711 88.5267 68.0691 89.8844 63.5135 87.0476L39.1479 71.2564C34.609 68.3933 33.245 62.4191 36.095 57.8847C38.9714 53.3668 44.9734 52.0091 49.529 54.8459L73.8918 70.6371C78.4317 73.4993 79.797 79.4737 76.9475 84.0088Z" fill="#BE7C5E"/>
</g>
</g>
</g>
</g>
<defs>
<linearGradient id="paint0_linear_52_637" x1="5705.21" y1="8043.42" x2="5705.21" y2="117.943" gradientUnits="userSpaceOnUse">
<stop stop-color="#808080" stop-opacity="0.25"/>
<stop offset="0.54" stop-color="#808080" stop-opacity="0.12"/>
<stop offset="1" stop-color="#808080" stop-opacity="0.1"/>
</linearGradient>
<linearGradient id="paint1_linear_52_637" x1="2612.13" y1="4111.88" x2="2612.13" y2="19.8037" gradientUnits="userSpaceOnUse">
<stop stop-color="#808080" stop-opacity="0.25"/>
<stop offset="0.54" stop-color="#808080" stop-opacity="0.12"/>
<stop offset="1" stop-color="#808080" stop-opacity="0.1"/>
</linearGradient>
<linearGradient id="paint2_linear_52_637" x1="4491.18" y1="15946" x2="4491.18" y2="-0.273737" gradientUnits="userSpaceOnUse">
<stop stop-color="#808080" stop-opacity="0.25"/>
<stop offset="0.54" stop-color="#808080" stop-opacity="0.12"/>
<stop offset="1" stop-color="#808080" stop-opacity="0.1"/>
</linearGradient>
<linearGradient id="paint3_linear_52_637" x1="1873.12" y1="7665.42" x2="1873.12" y2="68.2031" gradientUnits="userSpaceOnUse">
<stop stop-color="#808080" stop-opacity="0.25"/>
<stop offset="0.54" stop-color="#808080" stop-opacity="0.12"/>
<stop offset="1" stop-color="#808080" stop-opacity="0.1"/>
</linearGradient>
<linearGradient id="paint4_linear_52_637" x1="4157.15" y1="2078.14" x2="4157.15" y2="187.464" gradientUnits="userSpaceOnUse">
<stop stop-color="#808080" stop-opacity="0.25"/>
<stop offset="0.54" stop-color="#808080" stop-opacity="0.12"/>
<stop offset="1" stop-color="#808080" stop-opacity="0.1"/>
</linearGradient>
<linearGradient id="paint5_linear_52_637" x1="2093.84" y1="3465.23" x2="2093.84" y2="83.942" gradientUnits="userSpaceOnUse">
<stop stop-color="#808080" stop-opacity="0.25"/>
<stop offset="0.54" stop-color="#808080" stop-opacity="0.12"/>
<stop offset="1" stop-color="#808080" stop-opacity="0.1"/>
</linearGradient>
<linearGradient id="paint6_linear_52_637" x1="1715.66" y1="3116.52" x2="1715.66" y2="115.279" gradientUnits="userSpaceOnUse">
<stop stop-color="#808080" stop-opacity="0.25"/>
<stop offset="0.54" stop-color="#808080" stop-opacity="0.12"/>
<stop offset="1" stop-color="#808080" stop-opacity="0.1"/>
</linearGradient>
<linearGradient id="paint7_linear_52_637" x1="2548.83" y1="4983.99" x2="2548.83" y2="54.8157" gradientUnits="userSpaceOnUse">
<stop stop-color="#808080" stop-opacity="0.25"/>
<stop offset="0.54" stop-color="#808080" stop-opacity="0.12"/>
<stop offset="1" stop-color="#808080" stop-opacity="0.1"/>
</linearGradient>
<linearGradient id="paint8_linear_52_637" x1="2372.88" y1="3807.85" x2="2372.88" y2="53.085" gradientUnits="userSpaceOnUse">
<stop stop-color="#808080" stop-opacity="0.25"/>
<stop offset="0.54" stop-color="#808080" stop-opacity="0.12"/>
<stop offset="1" stop-color="#808080" stop-opacity="0.1"/>
</linearGradient>
<clipPath id="clip0_52_637">
<rect width="200" height="208" fill="white"/>
</clipPath>
</defs>
</svg>
