<svg width="16" height="16" viewBox="0 0 16 16" fill="none" xmlns="http://www.w3.org/2000/svg">
<g id="vuesax/outline/receipt-text">
<g id="receipt-text">
<path id="Vector" d="M12.9467 7.83325H10.6667C10.3933 7.83325 10.1667 7.60659 10.1667 7.33325V2.67325C10.1667 2.17992 10.36 1.71992 10.7067 1.37325C11.0533 1.02659 11.5133 0.833252 12.0067 0.833252H12.0133C12.8467 0.839919 13.6333 1.16659 14.2333 1.75992C14.8333 2.36659 15.16 3.16659 15.16 3.99992V5.61325C15.1667 6.93992 14.2733 7.83325 12.9467 7.83325ZM11.1667 6.83325H12.9467C13.72 6.83325 14.1667 6.38659 14.1667 5.61325V3.99992C14.1667 3.42659 13.94 2.87992 13.5333 2.46659C13.1267 2.06659 12.5867 1.83992 12.0133 1.83325C12.0133 1.83325 12.0133 1.83325 12.0067 1.83325C11.7867 1.83325 11.5733 1.91992 11.4133 2.07992C11.2533 2.23992 11.1667 2.44659 11.1667 2.67325V6.83325Z" fill="#035EAE"/>
<path id="Vector_2" d="M5.99984 15.5533C5.6865 15.5533 5.39318 15.4333 5.17318 15.2066L4.06649 14.0933C4.00649 14.0333 3.91318 14.0266 3.84652 14.0799L2.7065 14.9333C2.35317 15.1999 1.88649 15.2466 1.48649 15.0466C1.08649 14.8466 0.839844 14.4466 0.839844 13.9999V3.99992C0.839844 1.98659 1.99318 0.833252 4.00651 0.833252H12.0065C12.2798 0.833252 12.5065 1.05992 12.5065 1.33325C12.5065 1.60659 12.2798 1.83325 12.0065 1.83325C11.5465 1.83325 11.1732 2.20659 11.1732 2.66659V13.9999C11.1732 14.4466 10.9265 14.8466 10.5265 15.0466C10.1332 15.2466 9.65985 15.1999 9.30652 14.9333L8.1665 14.0799C8.09984 14.0266 8.0065 14.0399 7.95317 14.0933L6.83317 15.2133C6.6065 15.4333 6.31317 15.5533 5.99984 15.5533ZM3.93982 13.0466C4.24649 13.0466 4.54649 13.1599 4.77315 13.3933L5.87984 14.5066C5.91984 14.5466 5.97317 14.5533 5.99984 14.5533C6.0265 14.5533 6.07983 14.5466 6.11983 14.5066L7.23983 13.3866C7.65316 12.9733 8.30652 12.9333 8.76652 13.2866L9.89982 14.1333C9.97316 14.1866 10.0398 14.1666 10.0732 14.1466C10.1065 14.1266 10.1665 14.0866 10.1665 13.9999V2.66659C10.1665 2.36659 10.2398 2.07992 10.3665 1.83325H3.99984C2.51984 1.83325 1.83317 2.51992 1.83317 3.99992V13.9999C1.83317 14.0933 1.89318 14.1333 1.92651 14.1533C1.96651 14.1733 2.03319 14.1866 2.09985 14.1333L3.23983 13.2799C3.44649 13.1266 3.69315 13.0466 3.93982 13.0466Z" fill="#035EAE"/>
<path id="Vector_3" d="M8 6.5H4C3.72667 6.5 3.5 6.27333 3.5 6C3.5 5.72667 3.72667 5.5 4 5.5H8C8.27333 5.5 8.5 5.72667 8.5 6C8.5 6.27333 8.27333 6.5 8 6.5Z" fill="#035EAE"/>
<path id="Vector_4" d="M7.5 9.16675H4.5C4.22667 9.16675 4 8.94008 4 8.66675C4 8.39341 4.22667 8.16675 4.5 8.16675H7.5C7.77333 8.16675 8 8.39341 8 8.66675C8 8.94008 7.77333 9.16675 7.5 9.16675Z" fill="#035EAE"/>
</g>
</g>
</svg>
