<svg width="16" height="16" viewBox="0 0 16 16" fill="none" xmlns="http://www.w3.org/2000/svg">
<g id="vuesax/outline/send-2">
<g id="send-2">
<path id="Vector" d="M9.48 14.42C8.69334 14.42 7.58 13.8667 6.7 11.22L6.22 9.78005L4.78 9.30005C2.14 8.42005 1.58667 7.30671 1.58667 6.52005C1.58667 5.74005 2.14 4.62005 4.78 3.73338L10.44 1.84671C11.8533 1.37338 13.0333 1.51338 13.76 2.23338C14.4867 2.95338 14.6267 4.14005 14.1533 5.55338L12.2667 11.2134C11.38 13.8667 10.2667 14.42 9.48 14.42ZM5.09334 4.68671C3.24 5.30671 2.58 6.04005 2.58 6.52005C2.58 7.00005 3.24 7.73338 5.09334 8.34671L6.77334 8.90671C6.92 8.95338 7.04 9.07338 7.08667 9.22005L7.64667 10.9C8.26 12.7534 9 13.4134 9.48 13.4134C9.96 13.4134 10.6933 12.7534 11.3133 10.9L13.2 5.24005C13.54 4.21338 13.48 3.37338 13.0467 2.94005C12.6133 2.50671 11.7733 2.45338 10.7533 2.79338L5.09334 4.68671Z" fill="#035EAE"/>
<path id="Vector_2" d="M6.74 9.59992C6.61334 9.59992 6.48667 9.55325 6.38667 9.45325C6.19334 9.25992 6.19334 8.93992 6.38667 8.74659L8.77334 6.35325C8.96667 6.15992 9.28667 6.15992 9.48 6.35325C9.67334 6.54659 9.67334 6.86659 9.48 7.05992L7.09334 9.45325C7 9.55325 6.86667 9.59992 6.74 9.59992Z" fill="#035EAE"/>
</g>
</g>
</svg>
