<svg width="25" height="24" viewBox="0 0 25 24" fill="none" xmlns="http://www.w3.org/2000/svg">
<g id="vuesax/outline/send-2">
<g id="send-2">
<path id="Vector" d="M14.72 21.6298C13.54 21.6298 11.87 20.7998 10.55 16.8298L9.83 14.6698L7.67 13.9498C3.71 12.6298 2.88 10.9598 2.88 9.77983C2.88 8.60983 3.71 6.92983 7.67 5.59983L16.16 2.76983C18.28 2.05983 20.05 2.26983 21.14 3.34983C22.23 4.42983 22.44 6.20983 21.73 8.32983L18.9 16.8198C17.57 20.7998 15.9 21.6298 14.72 21.6298ZM8.14 7.02983C5.36 7.95983 4.37 9.05983 4.37 9.77983C4.37 10.4998 5.36 11.5998 8.14 12.5198L10.66 13.3598C10.88 13.4298 11.06 13.6098 11.13 13.8298L11.97 16.3498C12.89 19.1298 14 20.1198 14.72 20.1198C15.44 20.1198 16.54 19.1298 17.47 16.3498L20.3 7.85983C20.81 6.31983 20.72 5.05983 20.07 4.40983C19.42 3.75983 18.16 3.67983 16.63 4.18983L8.14 7.02983Z" fill="#28374B"/>
<path id="Vector_2" d="M10.61 14.4C10.42 14.4 10.23 14.33 10.08 14.18C9.79 13.89 9.79 13.41 10.08 13.12L13.66 9.53C13.95 9.24 14.43 9.24 14.72 9.53C15.01 9.82 15.01 10.3 14.72 10.59L11.14 14.18C11 14.33 10.8 14.4 10.61 14.4Z" fill="#28374B"/>
</g>
</g>
</svg>
