<svg width="16" height="16" viewBox="0 0 16 16" fill="none" xmlns="http://www.w3.org/2000/svg">
<g id="vuesax/outline/sort">
<g id="sort">
<path id="Vector" d="M5.16667 2L5.16667 14C5.16667 14.2733 4.94 14.5 4.66667 14.5C4.39333 14.5 4.16667 14.2733 4.16667 14L4.16667 2C4.16667 1.72667 4.39333 1.5 4.66667 1.5C4.94 1.5 5.16667 1.72667 5.16667 2Z" fill="#FFC000"/>
<path id="Vector_2" d="M8.5 4L8.5 12C8.5 12.2733 8.27333 12.5 8 12.5C7.72667 12.5 7.5 12.2733 7.5 12L7.5 4C7.5 3.72667 7.72667 3.5 8 3.5C8.27333 3.5 8.5 3.72667 8.5 4Z" fill="#FFC000"/>
<path id="Vector_3" d="M11.8333 6.66659L11.8333 9.33325C11.8333 9.60659 11.6067 9.83325 11.3333 9.83325C11.06 9.83325 10.8333 9.60659 10.8333 9.33325L10.8333 6.66659C10.8333 6.39325 11.06 6.16659 11.3333 6.16659C11.6067 6.16659 11.8333 6.39325 11.8333 6.66659Z" fill="#FFC000"/>
</g>
</g>
</svg>
